HIERARCHY
ROOT hip
{
	OFFSET 0.000000 0.000000 0.000000 
	CHANNELS 6 Xposition Yposition Zposition Xrotation Zrotation Yrotation
	JOINT abdomen
	{
		OFFSET 0.000000 3.402643 0.000000 
		CHANNELS 3 Xrotation Zrotation Yrotation
		JOINT chest
		{
			OFFSET 0.000000 8.438565 -0.680529 
			CHANNELS 3 Xrotation Zrotation Yrotation
			JOINT neck
			{
				OFFSET 0.000000 10.207942 -0.272212 
				CHANNELS 3 Xrotation Zrotation Yrotation
				JOINT head
				{
					OFFSET 0.000000 3.130431 0.000000 
					CHANNELS 3 Xrotation Zrotation Yrotation
					End Site
					{
						OFFSET 0.000000 3.130435 0.000000 
					}
				}
			}
			JOINT lCollar
			{
				OFFSET 3.470700 6.669187 -0.816635 
				CHANNELS 3 Yrotation Zrotation Xrotation
				JOINT lShldr
				{
					OFFSET 3.198488 0.000000 0.000000 
					CHANNELS 3 Zrotation Yrotation Xrotation
					JOINT lForeArm
					{
						OFFSET 10.139888 0.000000 0.000000 
						CHANNELS 3 Yrotation Zrotation Xrotation
						JOINT lHand
						{
							OFFSET 8.370511 0.000000 0.000000 
							CHANNELS 3 Zrotation Yrotation Xrotation
							End Site
							{
								OFFSET 4.083176 0.000000 0.000000 
							}
						}
					}
				}
			}
			JOINT rCollar
			{
				OFFSET -3.470700 6.669187 -0.816635 
				CHANNELS 3 Yrotation Zrotation Xrotation
				JOINT rShldr
				{
					OFFSET -3.198488 0.000000 0.000000 
					CHANNELS 3 Zrotation Yrotation Xrotation
					JOINT rForeArm
					{
						OFFSET -10.139888 0.000000 0.000000 
						CHANNELS 3 Yrotation Zrotation Xrotation
						JOINT rHand
						{
							OFFSET -8.370511 0.000000 0.000000 
							CHANNELS 3 Zrotation Yrotation Xrotation
							End Site
							{
								OFFSET -4.083176 0.000000 0.000000 
							}
						}
					}
				}
			}
		}
	}
	JOINT lThigh
	{
		OFFSET 5.308129 -1.633274 1.361059 
		CHANNELS 3 Xrotation Zrotation Yrotation
		JOINT lShin
		{
			OFFSET -2.041588 -20.007561 0.000000 
			CHANNELS 3 Xrotation Zrotation Yrotation
			JOINT lFoot
			{
				OFFSET 0.000000 -19.190928 -1.224953 
				CHANNELS 3 Xrotation Yrotation Zrotation
				End Site
				{
					OFFSET 0.000000 -2.449906 4.627600 
				}
			}
		}
	}
	JOINT rThigh
	{
		OFFSET -5.308129 -1.633274 1.361059 
		CHANNELS 3 Xrotation Zrotation Yrotation
		JOINT rShin
		{
			OFFSET 2.041588 -20.007561 0.000000 
			CHANNELS 3 Xrotation Zrotation Yrotation
			JOINT rFoot
			{
				OFFSET 0.000000 -19.190928 -1.224953 
				CHANNELS 3 Xrotation Yrotation Zrotation
				End Site
				{
					OFFSET 0.000000 -2.449906 4.627600 
				}
			}
		}
	}
}
MOTION
Frames: 8
Frame Time: 0.016667
0.510189 41.878265 0.902489 5.880450 1.311420 -16.173300 -16.580601 -1.481690 3.958100 17.127399 -1.686430 1.761150 17.418501 -6.174980 12.321800 11.450700 4.642640 6.368880 2.000000 -2.000000 0.000000 -65.250000 -21.635000 165.860992 142.188004 -0.099121 0.099600 0.079266 -0.095557 -169.246002 -2.000000 2.000000 0.000000 -111.480003 166.356003 -0.746692 -106.329002 0.179157 0.112076 -0.063789 0.054077 -156.619003 -28.501270 3.865810 -5.673460 55.958355 1.500018 3.738010 -5.960403 -12.976483 -0.638227 -15.350857 -2.462184 18.321880 49.314621 -2.314665 -3.247011 -21.941565 -13.755848 -6.420211 
0.642746 41.431942 0.909328 6.331150 1.766510 -16.405399 -17.113800 -1.497120 3.143330 17.323099 -1.530760 1.355970 17.461599 -6.008070 11.905400 11.431700 4.691310 6.139200 2.000000 -2.000000 0.000000 -64.927200 -21.117800 165.712997 141.406998 -0.100356 0.101169 0.078626 -0.094537 -168.815994 -2.000000 2.000000 0.000000 -110.983002 167.753006 -0.300955 -108.584000 0.174389 0.110577 -0.064208 0.055234 -157.057999 -26.903011 2.896061 -6.471138 53.316933 1.691814 3.614399 -12.345213 -12.686215 -2.137187 -15.064455 -2.624974 17.569895 48.872227 -2.349364 -3.232843 -26.769379 -16.483402 -9.134955 
0.772477 41.439663 0.695609 6.265360 2.417130 -16.453300 -17.168400 -1.435050 2.698200 16.991501 -1.140370 1.135480 16.359301 -5.607780 10.967300 11.109600 4.792240 5.617030 2.000000 -2.000000 0.000000 -66.520203 -21.622601 167.013000 141.153000 -0.100762 0.101676 0.078266 -0.093956 -168.572006 -2.000000 2.000000 0.000000 -110.934998 169.130005 -0.529013 -111.221001 0.168896 0.108588 -0.064237 0.055311 -157.087997 -26.272167 1.491777 -7.473741 51.561649 1.744640 3.525082 -13.913350 -10.707058 -2.016600 -16.242674 -3.320012 17.762213 50.228909 -2.258487 -3.298733 -25.882191 -16.108892 -8.657661 
0.902206 41.447380 0.481894 6.190550 3.067980 -16.493500 -17.221701 -1.360390 2.258700 16.650101 -0.750206 0.920365 15.261000 -5.216840 10.024100 10.787300 4.883460 5.102370 2.000000 -2.000000 0.000000 -68.132797 -22.098000 168.322998 140.899002 -0.101170 0.102181 0.077894 -0.093350 -168.317993 -2.000000 2.000000 0.000000 -110.887001 170.505997 -0.747320 -113.867996 0.163480 0.106341 -0.064255 0.055363 -157.106995 -25.661213 0.104397 -8.443780 49.942497 1.822642 3.451057 -15.616570 -8.780209 -1.860596 -17.425064 -4.016418 17.968863 51.645153 -2.157391 -3.384392 -25.071590 -15.716923 -8.171274 
0.913919 41.807739 0.135287 5.889790 3.477680 -15.812800 -16.753599 -1.284890 2.096200 16.582001 -0.331233 0.833561 13.591200 -4.114940 8.508890 10.221000 5.074580 4.312370 2.000000 -2.000000 0.000000 -70.547401 -23.224199 171.181000 140.147003 -0.102393 0.103665 0.077851 -0.093280 -168.289001 -2.000000 2.000000 0.000000 -110.331001 172.554993 -1.611880 -115.166000 0.160862 0.105147 -0.064255 0.055363 -157.106995 -25.099594 -0.772848 -9.624306 48.058224 1.909997 3.364531 -14.609233 -7.657606 -1.410225 -19.808020 -4.514708 18.098434 54.799843 -1.923408 -3.539934 -18.813490 -14.680425 -5.966290 
0.925630 42.168087 -0.211321 5.598930 3.897390 -15.135400 -16.285601 -1.221480 1.929240 16.513700 0.097413 0.735302 11.905100 -3.053560 6.963590 9.654410 5.265590 3.508890 2.000000 -2.000000 0.000000 106.949997 -155.766998 -5.896920 139.404999 -0.103618 0.105114 0.077795 -0.093187 -168.250000 -2.000000 2.000000 0.000000 -109.736000 174.593994 -2.495970 -116.464996 0.158271 0.103893 -0.064255 0.055363 -157.106995 -24.464500 -1.625309 -10.813936 46.231766 2.003177 3.274946 -13.758226 -6.522184 -1.011500 -22.140051 -5.019464 18.231710 57.943344 -1.684713 -3.693882 -12.667330 -13.449809 -3.881273 
0.704387 42.732292 -0.563612 5.478270 4.802290 -13.329000 -15.771800 -1.316140 1.534580 16.708300 1.081540 0.474140 10.267600 -1.158600 5.101520 9.022220 5.768480 2.556280 2.000000 -2.000000 0.000000 105.249001 -154.104996 -2.738760 137.891006 -0.106175 0.108019 0.078698 -0.094654 -168.865005 -2.000000 2.000000 0.000000 -108.789001 176.076996 -2.948970 -115.274002 0.160646 0.105045 -0.074624 0.066742 -157.722000 -23.491899 -2.179179 -11.665832 42.546375 2.185045 3.052970 -10.717241 -7.849098 -0.898679 -24.939352 -5.799522 17.801025 60.930069 -1.434338 -3.855897 -5.191447 -11.640441 -2.037172 
0.483146 43.296513 -0.915905 5.397930 5.707170 -11.512200 -15.266600 -1.400950 1.138230 16.901899 2.075850 0.209320 8.558630 0.680389 3.179830 8.379260 6.252240 1.600910 2.000000 -2.000000 0.000000 103.430000 -152.520996 0.526583 136.386993 -0.108790 0.110837 0.079618 -0.096111 -169.479996 -2.000000 2.000000 0.000000 -107.821999 177.550003 -3.421900 -114.092003 0.163025 0.106138 -0.075245 0.068349 -158.337997 -22.508360 -2.724476 -12.529756 38.860241 2.342664 2.846618 -7.690101 -9.191060 -0.724664 -27.746092 -6.591313 17.383680 63.974277 -1.162401 -3.991339 2.166504 -9.602920 -0.425773 
